<mxfile host="app.diagrams.net" modified="2023-07-07T02:36:55.871Z" agent="Mozilla/5.0 (Windows NT 10.0; Win64; x64) AppleWebKit/537.36 (KHTML, like Gecko) Chrome/114.0.0.0 Safari/537.36 Edg/114.0.1823.67" etag="CwBlnf9h6B8mDB6b3QcM" version="21.6.1" type="device">
  <diagram name="ページ1" id="vji6eWkfBcXECR2pNHFT">
    <mxGraphModel dx="880" dy="444" grid="1" gridSize="10" guides="1" tooltips="1" connect="1" arrows="1" fold="1" page="1" pageScale="1" pageWidth="827" pageHeight="1169" math="0" shadow="0">
      <root>
        <mxCell id="0" />
        <mxCell id="1" parent="0" />
        <mxCell id="xkeyIR3C7fxFRsBVZDZF-19" value="" style="rounded=0;whiteSpace=wrap;html=1;" vertex="1" parent="1">
          <mxGeometry x="90" y="70" width="610" height="700" as="geometry" />
        </mxCell>
        <mxCell id="xkeyIR3C7fxFRsBVZDZF-4" value="利用者" style="text;html=1;strokeColor=none;fillColor=none;align=center;verticalAlign=middle;whiteSpace=wrap;rounded=0;" vertex="1" parent="1">
          <mxGeometry x="170" y="100" width="60" height="30" as="geometry" />
        </mxCell>
        <mxCell id="xkeyIR3C7fxFRsBVZDZF-5" value="自販機" style="text;html=1;strokeColor=none;fillColor=none;align=center;verticalAlign=middle;whiteSpace=wrap;rounded=0;" vertex="1" parent="1">
          <mxGeometry x="480" y="100" width="60" height="30" as="geometry" />
        </mxCell>
        <mxCell id="xkeyIR3C7fxFRsBVZDZF-6" value="" style="ellipse;html=1;shape=startState;fillColor=#000000;strokeColor=#ff0000;" vertex="1" parent="1">
          <mxGeometry x="185" y="180" width="30" height="30" as="geometry" />
        </mxCell>
        <mxCell id="xkeyIR3C7fxFRsBVZDZF-7" value="" style="edgeStyle=orthogonalEdgeStyle;html=1;verticalAlign=bottom;endArrow=open;endSize=8;strokeColor=#ff0000;rounded=0;" edge="1" source="xkeyIR3C7fxFRsBVZDZF-6" parent="1">
          <mxGeometry relative="1" as="geometry">
            <mxPoint x="200" y="250" as="targetPoint" />
          </mxGeometry>
        </mxCell>
        <mxCell id="xkeyIR3C7fxFRsBVZDZF-8" value="金額を選ぶ" style="rounded=1;whiteSpace=wrap;html=1;arcSize=40;fontColor=#000000;fillColor=#ffffc0;strokeColor=#ff0000;" vertex="1" parent="1">
          <mxGeometry x="140" y="250" width="120" height="40" as="geometry" />
        </mxCell>
        <mxCell id="xkeyIR3C7fxFRsBVZDZF-9" value="" style="edgeStyle=orthogonalEdgeStyle;html=1;verticalAlign=bottom;endArrow=open;endSize=8;strokeColor=#ff0000;rounded=0;" edge="1" source="xkeyIR3C7fxFRsBVZDZF-8" parent="1">
          <mxGeometry relative="1" as="geometry">
            <mxPoint x="200" y="350" as="targetPoint" />
          </mxGeometry>
        </mxCell>
        <mxCell id="xkeyIR3C7fxFRsBVZDZF-10" value="お金を入れる" style="rounded=1;whiteSpace=wrap;html=1;arcSize=40;fontColor=#000000;fillColor=#ffffc0;strokeColor=#ff0000;" vertex="1" parent="1">
          <mxGeometry x="140" y="350" width="120" height="40" as="geometry" />
        </mxCell>
        <mxCell id="xkeyIR3C7fxFRsBVZDZF-11" value="" style="edgeStyle=orthogonalEdgeStyle;html=1;verticalAlign=bottom;endArrow=open;endSize=8;strokeColor=#ff0000;rounded=0;entryX=0;entryY=0.5;entryDx=0;entryDy=0;exitX=0.5;exitY=1;exitDx=0;exitDy=0;" edge="1" source="xkeyIR3C7fxFRsBVZDZF-10" parent="1">
          <mxGeometry relative="1" as="geometry">
            <mxPoint x="470" y="470" as="targetPoint" />
            <mxPoint x="200" y="400" as="sourcePoint" />
            <Array as="points">
              <mxPoint x="200" y="430" />
              <mxPoint x="201" y="430" />
              <mxPoint x="201" y="470" />
            </Array>
          </mxGeometry>
        </mxCell>
        <mxCell id="xkeyIR3C7fxFRsBVZDZF-14" value="切符を印刷する" style="rounded=1;whiteSpace=wrap;html=1;arcSize=40;fontColor=#000000;fillColor=#ffffc0;strokeColor=#ff0000;" vertex="1" parent="1">
          <mxGeometry x="470" y="540" width="120" height="40" as="geometry" />
        </mxCell>
        <mxCell id="xkeyIR3C7fxFRsBVZDZF-15" value="" style="edgeStyle=orthogonalEdgeStyle;html=1;verticalAlign=bottom;endArrow=open;endSize=8;strokeColor=#ff0000;rounded=0;entryX=1;entryY=0.5;entryDx=0;entryDy=0;" edge="1" source="xkeyIR3C7fxFRsBVZDZF-14" parent="1" target="xkeyIR3C7fxFRsBVZDZF-16">
          <mxGeometry relative="1" as="geometry">
            <mxPoint x="590" y="640" as="targetPoint" />
          </mxGeometry>
        </mxCell>
        <mxCell id="xkeyIR3C7fxFRsBVZDZF-16" value="切符を取り出す" style="rounded=1;whiteSpace=wrap;html=1;arcSize=40;fontColor=#000000;fillColor=#ffffc0;strokeColor=#ff0000;" vertex="1" parent="1">
          <mxGeometry x="140" y="610" width="120" height="40" as="geometry" />
        </mxCell>
        <mxCell id="xkeyIR3C7fxFRsBVZDZF-17" value="" style="edgeStyle=orthogonalEdgeStyle;html=1;verticalAlign=bottom;endArrow=open;endSize=8;strokeColor=#ff0000;rounded=0;" edge="1" source="xkeyIR3C7fxFRsBVZDZF-16" parent="1">
          <mxGeometry relative="1" as="geometry">
            <mxPoint x="200" y="710" as="targetPoint" />
          </mxGeometry>
        </mxCell>
        <mxCell id="xkeyIR3C7fxFRsBVZDZF-18" value="" style="ellipse;html=1;shape=endState;fillColor=#000000;strokeColor=#ff0000;" vertex="1" parent="1">
          <mxGeometry x="185" y="710" width="30" height="30" as="geometry" />
        </mxCell>
        <mxCell id="xkeyIR3C7fxFRsBVZDZF-20" value="" style="endArrow=none;html=1;rounded=0;entryX=1.003;entryY=0.13;entryDx=0;entryDy=0;entryPerimeter=0;" edge="1" parent="1" target="xkeyIR3C7fxFRsBVZDZF-19">
          <mxGeometry width="50" height="50" relative="1" as="geometry">
            <mxPoint x="90" y="160" as="sourcePoint" />
            <mxPoint x="140" y="110" as="targetPoint" />
          </mxGeometry>
        </mxCell>
        <mxCell id="xkeyIR3C7fxFRsBVZDZF-21" value="" style="endArrow=none;html=1;rounded=0;exitX=0.395;exitY=1.001;exitDx=0;exitDy=0;exitPerimeter=0;entryX=0.392;entryY=0.002;entryDx=0;entryDy=0;entryPerimeter=0;" edge="1" parent="1" source="xkeyIR3C7fxFRsBVZDZF-19" target="xkeyIR3C7fxFRsBVZDZF-19">
          <mxGeometry width="50" height="50" relative="1" as="geometry">
            <mxPoint x="332.95" y="220" as="sourcePoint" />
            <mxPoint x="329.9954545454545" y="90" as="targetPoint" />
          </mxGeometry>
        </mxCell>
        <mxCell id="xkeyIR3C7fxFRsBVZDZF-23" value="お金を数える" style="rounded=1;whiteSpace=wrap;html=1;arcSize=40;fontColor=#000000;fillColor=#ffffc0;strokeColor=#ff0000;" vertex="1" parent="1">
          <mxGeometry x="470" y="450" width="120" height="40" as="geometry" />
        </mxCell>
        <mxCell id="xkeyIR3C7fxFRsBVZDZF-24" value="" style="edgeStyle=orthogonalEdgeStyle;html=1;verticalAlign=bottom;endArrow=open;endSize=8;strokeColor=#ff0000;rounded=0;" edge="1" source="xkeyIR3C7fxFRsBVZDZF-23" parent="1">
          <mxGeometry relative="1" as="geometry">
            <mxPoint x="530" y="540" as="targetPoint" />
          </mxGeometry>
        </mxCell>
      </root>
    </mxGraphModel>
  </diagram>
</mxfile>
